<svg width="80" height="80" viewBox="0 0 80 80" fill="none" xmlns="http://www.w3.org/2000/svg">
<path d="M60.5887 69.6677H10.0488V1.56261H60.5887V69.6677Z" stroke="#FDA822" stroke-width="2.5" stroke-miterlimit="10" stroke-linecap="round" stroke-linejoin="round"/>
<path d="M69.9506 10.333V78.4375H21.0059V69.6672H60.5901V10.333H69.9506Z" stroke="#FDA822" stroke-width="2.5" stroke-miterlimit="10" stroke-linecap="round" stroke-linejoin="round"/>
<path d="M33.1577 19.1647C33.1577 22.6703 30.3158 25.5122 26.8102 25.5122C23.3046 25.5122 20.4629 22.6703 20.4629 19.1647C20.4629 15.6591 23.3046 12.8174 26.8102 12.8174C30.3158 12.8174 33.1577 15.6591 33.1577 19.1647Z" stroke="#FDA822" stroke-width="2.5" stroke-miterlimit="10" stroke-linecap="round" stroke-linejoin="round"/>
<path d="M39.334 13.6511H50.5777" stroke="#FDA822" stroke-width="2.5" stroke-miterlimit="10" stroke-linecap="round" stroke-linejoin="round"/>
<path d="M39.334 24.1353H50.5777" stroke="#FDA822" stroke-width="2.5" stroke-miterlimit="10" stroke-linecap="round" stroke-linejoin="round"/>
<path d="M39.334 34.7788H50.5777" stroke="#FDA822" stroke-width="2.5" stroke-miterlimit="10" stroke-linecap="round" stroke-linejoin="round"/>
<path d="M20.4629 45.2632H50.578" stroke="#FDA822" stroke-width="2.5" stroke-miterlimit="10" stroke-linecap="round" stroke-linejoin="round"/>
<path d="M20.4629 55.7473H43.4602" stroke="#FDA822" stroke-width="2.5" stroke-miterlimit="10" stroke-linecap="round" stroke-linejoin="round"/>
<path d="M31.4284 23.5182V35.4163L26.8096 31.8516L22.1924 35.4163V23.5197C23.3502 24.7463 24.9899 25.5119 26.8096 25.5119C28.6294 25.5119 30.2706 24.7463 31.4284 23.5182Z" stroke="#FDA822" stroke-width="2.5" stroke-miterlimit="10" stroke-linecap="round" stroke-linejoin="round"/>
</svg>
