<svg width="80" height="80" viewBox="0 0 80 80" fill="none" xmlns="http://www.w3.org/2000/svg">
<path d="M39.9987 1.56273L72.4998 11.7452V39.0921C72.4998 58.3026 58.8647 74.8097 39.9999 78.4375C21.1351 74.8097 7.5 58.3026 7.5 39.0921V11.7452L40.0012 1.56273" stroke="#FDA822" stroke-width="2.5" stroke-miterlimit="10" stroke-linecap="round" stroke-linejoin="round"/>
<path d="M60.1058 53.7352C62.44 49.3365 63.7499 44.3402 63.7499 39.0921V18.1733L39.9999 10.7325L16.25 18.1733V39.0921C16.25 53.5138 26.1409 66.0328 39.9999 69.481C43.9589 68.4966 47.6862 66.7446 50.9702 64.3243" stroke="#FDA822" stroke-width="2.5" stroke-miterlimit="10" stroke-linecap="round" stroke-linejoin="round"/>
<path d="M37.1623 50.1963L26.6992 39.7332L32.0025 34.4298L37.1623 39.5898L47.9984 28.7537L53.3016 34.057L37.1623 50.1963Z" stroke="#FDA822" stroke-width="2.5" stroke-miterlimit="10" stroke-linecap="round" stroke-linejoin="round"/>
</svg>
